<svg xmlns="http://www.w3.org/2000/svg" height="26" width="297" viewBox="11373 47 275 24.062"><g transform="translate(10870 19)"><path d="M0,6.356H.382A11.608,11.608,0,0,1,1.655,3.3,6.52,6.52,0,0,1,3.183,1.646a5.454,5.454,0,0,1,1.655-.637A6.2,6.2,0,0,1,6.366.882h1.91V22.907H4.583v.509h10.44v-.509H11.458V.882h1.91a5.709,5.709,0,0,1,1.4.127,5.454,5.454,0,0,1,1.655.637A6.52,6.52,0,0,1,17.951,3.3a11.608,11.608,0,0,1,1.273,3.056h.382V.5H0Z" transform="translate(503 28.137)"/><path d="M39.87,18.2a7.078,7.078,0,0,1-1.146,2.164,8.569,8.569,0,0,1-1.91,1.782,5.274,5.274,0,0,1-2.928.764H27.775V11.322h2.674a4.252,4.252,0,0,1,1.91.382A3.006,3.006,0,0,1,33.5,12.722a7.788,7.788,0,0,1,.637,1.528,9.377,9.377,0,0,0,.509,1.782h.382V6.1H34.65a18.456,18.456,0,0,1-.764,2.419,2.961,2.961,0,0,1-.891,1.4,2.642,2.642,0,0,1-1.273.764,7.514,7.514,0,0,1-1.782.255H27.9V.882H33.25a6.167,6.167,0,0,1,2.292.382A4.492,4.492,0,0,1,37.2,2.282a3.877,3.877,0,0,1,1.146,1.655A11.014,11.014,0,0,1,39.233,6.1h.382V.5H20.9v.509h3.565V23.035H20.9v.509H40.634v-7.13h-.382C40.252,16.8,40,17.433,39.87,18.2Z" transform="translate(508.709 28.137)"/><path d="M54.15,0h-.764L44.6,23.044H41.8v.509h6.875v-.509H45.11l3.438-8.912h7.512L59.5,23.044H55.932v.509h9.931v-.509H62.934ZM48.675,13.623,52.24,4.329,55.8,13.75h-7.13Z" transform="translate(514.417 28)"/><path d="M74.494,9.539,82.642.882h2.674V.5H78.7V.882h3.31L72.33,11.194h-.382V.882h3.31V.5H65.2V.882h3.565V22.907H65.2v.509H75.258v-.509h-3.31V11.576H72.2l9.676,11.331H78.95v.509h9.421v-.509H86.207Z" transform="translate(520.809 28.137)"/><path d="M112.8,6.356h.382A11.608,11.608,0,0,1,114.455,3.3a6.52,6.52,0,0,1,1.528-1.655,4.448,4.448,0,0,1,1.655-.637,5.709,5.709,0,0,1,1.4-.127h1.91V22.907h-3.565v.509h10.44v-.509h-3.565V.882h1.91a5.709,5.709,0,0,1,1.4.127,5.454,5.454,0,0,1,1.655.637A6.521,6.521,0,0,1,130.751,3.3a11.608,11.608,0,0,1,1.273,3.056h.382V.5H112.8Z" transform="translate(533.811 28.137)"/><path d="M161.191.882h3.437L157.881,19.6h-.127L151.133.882h3.438V.5h-9.676V.882h2.8l2.419,6.875L145.786,19.6h0L139.166.882h3.31V.5H132.8V.882h2.8l8.275,23.044h.891l5.6-15.532h.127l5.475,15.532h.764l8.4-23.044h2.928V.5h-6.875Z" transform="translate(539.274 28.137)"/><path d="M164.9.882h3.565V22.907H164.9v.509h10.312v-.509h-3.565V.882h3.565V.5H164.9Z" transform="translate(548.042 28.137)"/><path d="M192.459.882h3.692V18.069h-.127L185.075.5H178.2V.882h3.565V22.907H178.2v.509h7.639v-.509h-3.565V2.282h.127l13.5,21.643h.637V.882H200.1V.5h-7.639Z" transform="translate(551.675 28.137)"/><path d="M219.825,16.414a7.152,7.152,0,0,1-.509,1.91,7.077,7.077,0,0,1-1.146,2.164,8.569,8.569,0,0,1-1.91,1.782,5.274,5.274,0,0,1-2.928.764H207.22V11.322h2.674a4.252,4.252,0,0,1,1.91.382,3.006,3.006,0,0,1,1.146,1.019,7.79,7.79,0,0,1,.637,1.528,9.376,9.376,0,0,0,.509,1.782h.382V6.1H214.1a18.456,18.456,0,0,1-.764,2.419,2.961,2.961,0,0,1-.891,1.4,2.642,2.642,0,0,1-1.273.764,7.514,7.514,0,0,1-1.782.255h-2.037V.882h5.347a6.168,6.168,0,0,1,2.292.382,4.492,4.492,0,0,1,1.655,1.019,3.877,3.877,0,0,1,1.146,1.655,11.014,11.014,0,0,1,.891,2.164h.382V.5H200.6v.509h3.565V23.035H200.6v.509h19.606v-7.13Z" transform="translate(557.794 28.137)"/><path d="M93.064,11.875a3.555,3.555,0,0,0-.764,2.292,3.524,3.524,0,0,0,.382,1.655,4.573,4.573,0,0,0,.891,1.273,2.642,2.642,0,0,0,1.273.764,3.23,3.23,0,0,0,1.528.255,5.255,5.255,0,0,0,3.947-2.037,4.452,4.452,0,0,0,3.692,2.037,2.559,2.559,0,0,0,1.655-.509,3.611,3.611,0,0,0,1.019-1.4h-.509a1.662,1.662,0,0,1-1.528.891,2.9,2.9,0,0,1-1.4-.382,10.779,10.779,0,0,1-1.782-2.037,7.466,7.466,0,0,0,1.019-2.037,8.49,8.49,0,0,1,1.273-2.292,4.4,4.4,0,0,1,1.528-.891V8.947H100.83v.509c1.146.127,1.655.637,1.655,1.4a3.864,3.864,0,0,1-.382,1.4,6.382,6.382,0,0,1-1.019,1.782A29.371,29.371,0,0,0,99.3,11.621c-.637-.764-1.273-1.655-1.91-2.546,2.037-1.019,3.056-2.037,3.056-3.183a1.855,1.855,0,0,0-.891-1.655A3.847,3.847,0,0,0,97.52,3.6a2.792,2.792,0,0,0-2.164.891,3.277,3.277,0,0,0-.891,1.91,5.4,5.4,0,0,0,1.273,3.183A13.322,13.322,0,0,0,93.064,11.875ZM96.5,4.619a1.476,1.476,0,0,1,1.273-.509,1.615,1.615,0,0,1,.764.127,1.758,1.758,0,0,1,.509.382,2.783,2.783,0,0,1,.382.637,1.615,1.615,0,0,1,.127.764c0,1.019-.764,1.91-2.164,2.674a5.16,5.16,0,0,1-1.273-2.8A1.221,1.221,0,0,1,96.5,4.619Zm-2.037,7a6.807,6.807,0,0,1,1.655-1.655c.509.764,1.146,1.528,1.782,2.419s1.273,1.91,2.037,3.056a3.538,3.538,0,0,1-2.8,1.4,3.335,3.335,0,0,1-2.419-1.146A3.449,3.449,0,0,1,93.7,13.149,8.37,8.37,0,0,1,94.464,11.621Z" transform="translate(528.212 28.983)"/><rect width="19.479" height="0.509" transform="translate(617.456 28.509)"/><rect width="19.479" height="0.509" transform="translate(617.456 51.171)"/></g></svg>
